<svg xmlns="http://www.w3.org/2000/svg" xmlns:xlink="http://www.w3.org/1999/xlink" width="1078" zoomAndPan="magnify" viewBox="0 0 808.5 197.249993" height="263" preserveAspectRatio="xMidYMid meet" version="1.0"><defs><g/><clipPath id="6fba0af2fc"><path d="M 76.082031 89 L 142 89 L 142 113 L 76.082031 113 Z M 76.082031 89 " clip-rule="nonzero"/></clipPath><clipPath id="efdd243b7f"><path d="M 140 75.082031 L 173.273438 75.082031 L 173.273438 121.125 L 140 121.125 Z M 140 75.082031 " clip-rule="nonzero"/></clipPath></defs><g clip-path="url(#6fba0af2fc)"><path fill="#004aad" d="M 137.199219 109.421875 L 81.300781 109.421875 C 79.902344 109.421875 78.773438 108.289062 78.773438 106.894531 L 78.773438 94.394531 C 78.773438 93 79.902344 91.867188 81.300781 91.867188 L 141.390625 91.867188 C 141.441406 91.84375 141.492188 91.824219 141.535156 91.804688 L 141.535156 89.164062 L 81.300781 89.164062 C 78.414062 89.164062 76.082031 91.503906 76.082031 94.394531 L 76.082031 106.894531 C 76.082031 109.785156 78.414062 112.125 81.300781 112.125 L 137.199219 112.125 L 137.199219 109.421875 " fill-opacity="1" fill-rule="nonzero"/></g><path fill="#004aad" d="M 100.128906 97.847656 L 99.265625 96.40625 C 99.003906 95.972656 98.402344 95.882812 97.972656 96.121094 L 95.957031 97.273438 L 95.957031 95.253906 C 95.957031 94.675781 95.53125 94.238281 94.953125 94.238281 L 93.371094 94.238281 C 92.800781 94.238281 92.367188 94.675781 92.367188 95.253906 L 92.367188 97.273438 L 90.355469 96.121094 C 89.921875 95.882812 89.320312 95.972656 89.066406 96.40625 L 88.203125 97.847656 C 87.914062 98.3125 88.054688 98.886719 88.488281 99.148438 L 90.5 100.300781 L 88.488281 101.457031 C 88.054688 101.714844 87.945312 102.324219 88.203125 102.753906 L 89.066406 104.199219 C 89.351562 104.628906 89.921875 104.746094 90.355469 104.484375 L 92.367188 103.332031 L 92.367188 105.351562 C 92.367188 105.929688 92.800781 106.359375 93.371094 106.359375 L 94.953125 106.359375 C 95.53125 106.359375 95.957031 105.929688 95.957031 105.351562 L 95.957031 103.332031 L 97.972656 104.484375 C 98.402344 104.746094 98.980469 104.628906 99.265625 104.199219 L 100.128906 102.753906 C 100.386719 102.324219 100.269531 101.714844 99.84375 101.457031 L 97.824219 100.300781 L 99.84375 99.148438 C 100.269531 98.886719 100.414062 98.3125 100.128906 97.847656 " fill-opacity="1" fill-rule="nonzero"/><path fill="#004aad" d="M 117.28125 97.847656 L 116.417969 96.40625 C 116.164062 95.972656 115.554688 95.882812 115.128906 96.121094 L 113.117188 97.273438 L 113.117188 95.253906 C 113.117188 94.675781 112.683594 94.238281 112.113281 94.238281 L 110.53125 94.238281 C 109.953125 94.238281 109.527344 94.675781 109.527344 95.253906 L 109.527344 97.273438 L 107.507812 96.121094 C 107.082031 95.882812 106.480469 95.972656 106.21875 96.40625 L 105.355469 97.847656 C 105.070312 98.3125 105.214844 98.886719 105.640625 99.148438 L 107.65625 100.300781 L 105.640625 101.457031 C 105.214844 101.714844 105.097656 102.324219 105.355469 102.753906 L 106.21875 104.199219 C 106.503906 104.628906 107.082031 104.746094 107.507812 104.484375 L 109.527344 103.332031 L 109.527344 105.351562 C 109.527344 105.929688 109.953125 106.359375 110.53125 106.359375 L 112.113281 106.359375 C 112.683594 106.359375 113.117188 105.929688 113.117188 105.351562 L 113.117188 103.332031 L 115.128906 104.484375 C 115.554688 104.746094 116.132812 104.628906 116.417969 104.199219 L 117.28125 102.753906 C 117.539062 102.324219 117.429688 101.714844 116.996094 101.457031 L 114.984375 100.300781 L 116.996094 99.148438 C 117.429688 98.886719 117.570312 98.3125 117.28125 97.847656 " fill-opacity="1" fill-rule="nonzero"/><path fill="#004aad" d="M 134.4375 97.847656 L 133.578125 96.40625 C 133.316406 95.972656 132.714844 95.882812 132.28125 96.121094 L 130.269531 97.273438 L 130.269531 95.253906 C 130.269531 94.675781 129.839844 94.238281 129.265625 94.238281 L 127.683594 94.238281 C 127.113281 94.238281 126.679688 94.675781 126.679688 95.253906 L 126.679688 97.273438 L 124.667969 96.121094 C 124.234375 95.882812 123.632812 95.972656 123.371094 96.40625 L 122.507812 97.847656 C 122.222656 98.3125 122.367188 98.886719 122.800781 99.148438 L 124.8125 100.300781 L 122.800781 101.457031 C 122.367188 101.714844 122.253906 102.324219 122.507812 102.753906 L 123.371094 104.199219 C 123.664062 104.628906 124.234375 104.746094 124.667969 104.484375 L 126.679688 103.332031 L 126.679688 105.351562 C 126.679688 105.929688 127.113281 106.359375 127.683594 106.359375 L 129.265625 106.359375 C 129.839844 106.359375 130.269531 105.929688 130.269531 105.351562 L 130.269531 103.332031 L 132.28125 104.484375 C 132.714844 104.746094 133.289062 104.628906 133.578125 104.199219 L 134.4375 102.753906 C 134.691406 102.324219 134.582031 101.714844 134.148438 101.457031 L 132.136719 100.300781 L 134.148438 99.148438 C 134.582031 98.886719 134.722656 98.3125 134.4375 97.847656 " fill-opacity="1" fill-rule="nonzero"/><g clip-path="url(#efdd243b7f)"><path fill="#004aad" d="M 154.042969 116.742188 L 155.585938 106.140625 C 154.574219 105.601562 153.890625 104.535156 153.890625 103.300781 C 153.890625 101.527344 155.324219 100.085938 157.09375 100.085938 C 158.863281 100.085938 160.292969 101.527344 160.292969 103.300781 C 160.292969 104.535156 159.605469 105.601562 158.601562 106.140625 L 160.140625 116.742188 Z M 164.285156 86.941406 L 164.285156 95.179688 L 149.960938 95.179688 L 149.960938 86.941406 C 149.960938 82.980469 153.171875 79.753906 157.125 79.753906 C 161.070312 79.753906 164.285156 82.980469 164.285156 86.941406 Z M 170.417969 95.179688 L 168.9375 95.179688 L 168.9375 86.941406 C 168.9375 80.402344 163.636719 75.082031 157.125 75.082031 C 150.605469 75.082031 145.308594 80.402344 145.308594 86.941406 L 145.308594 95.179688 L 143.824219 95.179688 C 143.035156 95.179688 142.324219 95.503906 141.808594 96.019531 C 141.609375 96.214844 141.449219 96.4375 141.3125 96.679688 C 141.09375 97.09375 140.972656 97.554688 140.972656 98.050781 L 140.972656 118.261719 C 140.972656 118.753906 141.09375 119.21875 141.3125 119.625 C 141.449219 119.867188 141.609375 120.09375 141.808594 120.285156 C 142.324219 120.808594 143.035156 121.125 143.824219 121.125 L 170.417969 121.125 C 171.996094 121.125 173.273438 119.84375 173.273438 118.261719 L 173.273438 98.050781 C 173.273438 96.464844 171.996094 95.179688 170.417969 95.179688 " fill-opacity="1" fill-rule="nonzero"/></g><g fill="#004aad" fill-opacity="1"><g transform="translate(179.971862, 107.925263)"><g><path d="M 4.109375 -14.25 C 5.234375 -14.25 6.070312 -13.945312 6.625 -13.34375 C 7.175781 -12.75 7.453125 -11.878906 7.453125 -10.734375 L 7.453125 -8.875 C 7.453125 -7.71875 7.175781 -6.84375 6.625 -6.25 C 6.070312 -5.65625 5.234375 -5.359375 4.109375 -5.359375 L 3.046875 -5.359375 L 3.046875 0 L 0.8125 0 L 0.8125 -14.25 Z M 3.046875 -12.21875 L 3.046875 -7.390625 L 4.109375 -7.390625 C 4.460938 -7.390625 4.734375 -7.484375 4.921875 -7.671875 C 5.117188 -7.859375 5.21875 -8.210938 5.21875 -8.734375 L 5.21875 -10.875 C 5.21875 -11.382812 5.117188 -11.734375 4.921875 -11.921875 C 4.734375 -12.117188 4.460938 -12.21875 4.109375 -12.21875 Z M 3.046875 -12.21875 "/></g></g></g><g fill="#004aad" fill-opacity="1"><g transform="translate(188.034866, 107.925263)"><g><path d="M 2.875 -3.28125 C 2.875 -2.757812 2.976562 -2.394531 3.1875 -2.1875 C 3.394531 -1.976562 3.675781 -1.875 4.03125 -1.875 C 4.382812 -1.875 4.664062 -1.976562 4.875 -2.1875 C 5.082031 -2.394531 5.1875 -2.757812 5.1875 -3.28125 L 5.1875 -10.96875 C 5.1875 -11.488281 5.082031 -11.851562 4.875 -12.0625 C 4.664062 -12.269531 4.382812 -12.375 4.03125 -12.375 C 3.675781 -12.375 3.394531 -12.269531 3.1875 -12.0625 C 2.976562 -11.851562 2.875 -11.488281 2.875 -10.96875 Z M 0.625 -10.828125 C 0.625 -11.984375 0.914062 -12.867188 1.5 -13.484375 C 2.082031 -14.109375 2.925781 -14.421875 4.03125 -14.421875 C 5.132812 -14.421875 5.976562 -14.109375 6.5625 -13.484375 C 7.144531 -12.867188 7.4375 -11.984375 7.4375 -10.828125 L 7.4375 -3.421875 C 7.4375 -2.265625 7.144531 -1.378906 6.5625 -0.765625 C 5.976562 -0.148438 5.132812 0.15625 4.03125 0.15625 C 2.925781 0.15625 2.082031 -0.148438 1.5 -0.765625 C 0.914062 -1.378906 0.625 -2.265625 0.625 -3.421875 Z M 0.625 -10.828125 "/></g></g></g><g fill="#004aad" fill-opacity="1"><g transform="translate(196.382928, 107.925263)"><g><path d="M 5.5 0 C 5.46875 -0.09375 5.4375 -0.179688 5.40625 -0.265625 C 5.382812 -0.347656 5.363281 -0.445312 5.34375 -0.5625 C 5.320312 -0.6875 5.304688 -0.84375 5.296875 -1.03125 C 5.296875 -1.226562 5.296875 -1.46875 5.296875 -1.75 L 5.296875 -3.984375 C 5.296875 -4.648438 5.175781 -5.117188 4.9375 -5.390625 C 4.707031 -5.660156 4.335938 -5.796875 3.828125 -5.796875 L 3.046875 -5.796875 L 3.046875 0 L 0.8125 0 L 0.8125 -14.25 L 4.1875 -14.25 C 5.351562 -14.25 6.195312 -13.976562 6.71875 -13.4375 C 7.25 -12.894531 7.515625 -12.070312 7.515625 -10.96875 L 7.515625 -9.859375 C 7.515625 -8.390625 7.023438 -7.425781 6.046875 -6.96875 C 6.617188 -6.726562 7.007812 -6.347656 7.21875 -5.828125 C 7.425781 -5.304688 7.53125 -4.671875 7.53125 -3.921875 L 7.53125 -1.734375 C 7.53125 -1.378906 7.539062 -1.066406 7.5625 -0.796875 C 7.59375 -0.535156 7.664062 -0.269531 7.78125 0 Z M 3.046875 -12.21875 L 3.046875 -7.84375 L 3.921875 -7.84375 C 4.347656 -7.84375 4.675781 -7.945312 4.90625 -8.15625 C 5.144531 -8.375 5.265625 -8.769531 5.265625 -9.34375 L 5.265625 -10.75 C 5.265625 -11.257812 5.171875 -11.628906 4.984375 -11.859375 C 4.804688 -12.097656 4.523438 -12.21875 4.140625 -12.21875 Z M 3.046875 -12.21875 "/></g></g></g><g fill="#004aad" fill-opacity="1"><g transform="translate(204.853156, 107.925263)"><g><path d="M 0.15625 -14.25 L 7.078125 -14.25 L 7.078125 -12.21875 L 4.75 -12.21875 L 4.75 0 L 2.5 0 L 2.5 -12.21875 L 0.15625 -12.21875 Z M 0.15625 -14.25 "/></g></g></g><g fill="#004aad" fill-opacity="1"><g transform="translate(212.386783, 107.925263)"><g><path d="M 8.0625 0 L 5.796875 0 L 5.421875 -2.578125 L 2.671875 -2.578125 L 2.28125 0 L 0.21875 0 L 2.5 -14.25 L 5.78125 -14.25 Z M 2.953125 -4.515625 L 5.109375 -4.515625 L 4.03125 -11.734375 Z M 2.953125 -4.515625 "/></g></g></g><g fill="#004aad" fill-opacity="1"><g transform="translate(220.958815, 107.925263)"><g><path d="M 0.8125 -14.25 L 3.046875 -14.25 L 3.046875 0 L 0.8125 0 Z M 0.8125 -14.25 "/></g></g></g><g fill="#004aad" fill-opacity="1"><g transform="translate(225.112517, 107.925263)"><g><path d="M 0.8125 -14.25 L 3.046875 -14.25 L 3.046875 -2.03125 L 6.734375 -2.03125 L 6.734375 0 L 0.8125 0 Z M 0.8125 -14.25 "/></g></g></g><g fill="#004aad" fill-opacity="1"><g transform="translate(232.300006, 107.925263)"><g/></g></g><g fill="#004aad" fill-opacity="1"><g transform="translate(235.741075, 107.925263)"><g><path d="M 0.53125 -10.828125 C 0.53125 -11.984375 0.800781 -12.867188 1.34375 -13.484375 C 1.894531 -14.109375 2.722656 -14.421875 3.828125 -14.421875 C 4.929688 -14.421875 5.753906 -14.109375 6.296875 -13.484375 C 6.847656 -12.867188 7.125 -11.984375 7.125 -10.828125 L 7.125 -10.390625 L 5.015625 -10.390625 L 5.015625 -10.96875 C 5.015625 -11.488281 4.914062 -11.851562 4.71875 -12.0625 C 4.519531 -12.269531 4.242188 -12.375 3.890625 -12.375 C 3.535156 -12.375 3.257812 -12.269531 3.0625 -12.0625 C 2.863281 -11.851562 2.765625 -11.488281 2.765625 -10.96875 C 2.765625 -10.476562 2.875 -10.046875 3.09375 -9.671875 C 3.3125 -9.304688 3.582031 -8.957031 3.90625 -8.625 C 4.226562 -8.289062 4.578125 -7.957031 4.953125 -7.625 C 5.328125 -7.289062 5.675781 -6.925781 6 -6.53125 C 6.332031 -6.132812 6.601562 -5.6875 6.8125 -5.1875 C 7.03125 -4.6875 7.140625 -4.097656 7.140625 -3.421875 C 7.140625 -2.265625 6.859375 -1.378906 6.296875 -0.765625 C 5.734375 -0.148438 4.90625 0.15625 3.8125 0.15625 C 2.707031 0.15625 1.875 -0.148438 1.3125 -0.765625 C 0.75 -1.378906 0.46875 -2.265625 0.46875 -3.421875 L 0.46875 -4.296875 L 2.578125 -4.296875 L 2.578125 -3.28125 C 2.578125 -2.757812 2.679688 -2.394531 2.890625 -2.1875 C 3.109375 -1.988281 3.394531 -1.890625 3.75 -1.890625 C 4.101562 -1.890625 4.382812 -1.988281 4.59375 -2.1875 C 4.800781 -2.394531 4.90625 -2.757812 4.90625 -3.28125 C 4.90625 -3.769531 4.796875 -4.195312 4.578125 -4.5625 C 4.359375 -4.9375 4.085938 -5.289062 3.765625 -5.625 C 3.441406 -5.957031 3.09375 -6.289062 2.71875 -6.625 C 2.34375 -6.957031 1.992188 -7.320312 1.671875 -7.71875 C 1.347656 -8.113281 1.078125 -8.5625 0.859375 -9.0625 C 0.640625 -9.5625 0.53125 -10.148438 0.53125 -10.828125 Z M 0.53125 -10.828125 "/></g></g></g><g fill="#004aad" fill-opacity="1"><g transform="translate(243.6412, 107.925263)"><g><path d="M 3.046875 -8.25 L 6.125 -8.25 L 6.125 -6.203125 L 3.046875 -6.203125 L 3.046875 -2.03125 L 6.921875 -2.03125 L 6.921875 0 L 0.8125 0 L 0.8125 -14.25 L 6.921875 -14.25 L 6.921875 -12.21875 L 3.046875 -12.21875 Z M 6.25 -17.265625 L 4.171875 -15 L 2.671875 -15 L 4.046875 -17.265625 Z M 6.25 -17.265625 "/></g></g></g><g fill="#004aad" fill-opacity="1"><g transform="translate(251.419158, 107.925263)"><g><path d="M 7.3125 -5.3125 L 7.3125 -3.421875 C 7.3125 -2.265625 7.03125 -1.378906 6.46875 -0.765625 C 5.90625 -0.148438 5.070312 0.15625 3.96875 0.15625 C 2.875 0.15625 2.039062 -0.148438 1.46875 -0.765625 C 0.90625 -1.378906 0.625 -2.265625 0.625 -3.421875 L 0.625 -10.828125 C 0.625 -11.984375 0.90625 -12.867188 1.46875 -13.484375 C 2.039062 -14.109375 2.875 -14.421875 3.96875 -14.421875 C 5.070312 -14.421875 5.90625 -14.109375 6.46875 -13.484375 C 7.03125 -12.867188 7.3125 -11.984375 7.3125 -10.828125 L 7.3125 -9.453125 L 5.1875 -9.453125 L 5.1875 -10.96875 C 5.1875 -11.488281 5.082031 -11.851562 4.875 -12.0625 C 4.664062 -12.269531 4.382812 -12.375 4.03125 -12.375 C 3.675781 -12.375 3.394531 -12.269531 3.1875 -12.0625 C 2.976562 -11.851562 2.875 -11.488281 2.875 -10.96875 L 2.875 -3.28125 C 2.875 -2.757812 2.976562 -2.394531 3.1875 -2.1875 C 3.394531 -1.988281 3.675781 -1.890625 4.03125 -1.890625 C 4.382812 -1.890625 4.664062 -1.988281 4.875 -2.1875 C 5.082031 -2.394531 5.1875 -2.757812 5.1875 -3.28125 L 5.1875 -5.3125 Z M 7.3125 -5.3125 "/></g></g></g><g fill="#004aad" fill-opacity="1"><g transform="translate(259.563615, 107.925263)"><g><path d="M 2.953125 -14.25 L 2.953125 -3.25 C 2.953125 -2.738281 3.054688 -2.378906 3.265625 -2.171875 C 3.472656 -1.972656 3.753906 -1.875 4.109375 -1.875 C 4.460938 -1.875 4.742188 -1.972656 4.953125 -2.171875 C 5.160156 -2.378906 5.265625 -2.738281 5.265625 -3.25 L 5.265625 -14.25 L 7.390625 -14.25 L 7.390625 -3.40625 C 7.390625 -2.25 7.109375 -1.359375 6.546875 -0.734375 C 5.984375 -0.117188 5.148438 0.1875 4.046875 0.1875 C 2.953125 0.1875 2.125 -0.117188 1.5625 -0.734375 C 1 -1.359375 0.71875 -2.25 0.71875 -3.40625 L 0.71875 -14.25 Z M 2.953125 -14.25 "/></g></g></g><g fill="#004aad" fill-opacity="1"><g transform="translate(267.952404, 107.925263)"><g><path d="M 5.5 0 C 5.46875 -0.09375 5.4375 -0.179688 5.40625 -0.265625 C 5.382812 -0.347656 5.363281 -0.445312 5.34375 -0.5625 C 5.320312 -0.6875 5.304688 -0.84375 5.296875 -1.03125 C 5.296875 -1.226562 5.296875 -1.46875 5.296875 -1.75 L 5.296875 -3.984375 C 5.296875 -4.648438 5.175781 -5.117188 4.9375 -5.390625 C 4.707031 -5.660156 4.335938 -5.796875 3.828125 -5.796875 L 3.046875 -5.796875 L 3.046875 0 L 0.8125 0 L 0.8125 -14.25 L 4.1875 -14.25 C 5.351562 -14.25 6.195312 -13.976562 6.71875 -13.4375 C 7.25 -12.894531 7.515625 -12.070312 7.515625 -10.96875 L 7.515625 -9.859375 C 7.515625 -8.390625 7.023438 -7.425781 6.046875 -6.96875 C 6.617188 -6.726562 7.007812 -6.347656 7.21875 -5.828125 C 7.425781 -5.304688 7.53125 -4.671875 7.53125 -3.921875 L 7.53125 -1.734375 C 7.53125 -1.378906 7.539062 -1.066406 7.5625 -0.796875 C 7.59375 -0.535156 7.664062 -0.269531 7.78125 0 Z M 3.046875 -12.21875 L 3.046875 -7.84375 L 3.921875 -7.84375 C 4.347656 -7.84375 4.675781 -7.945312 4.90625 -8.15625 C 5.144531 -8.375 5.265625 -8.769531 5.265625 -9.34375 L 5.265625 -10.75 C 5.265625 -11.257812 5.171875 -11.628906 4.984375 -11.859375 C 4.804688 -12.097656 4.523438 -12.21875 4.140625 -12.21875 Z M 3.046875 -12.21875 "/></g></g></g><g fill="#004aad" fill-opacity="1"><g transform="translate(276.422627, 107.925263)"><g><path d="M 0.8125 -14.25 L 3.046875 -14.25 L 3.046875 0 L 0.8125 0 Z M 0.8125 -14.25 "/></g></g></g><g fill="#004aad" fill-opacity="1"><g transform="translate(280.57633, 107.925263)"><g><path d="M 0.53125 -10.828125 C 0.53125 -11.984375 0.800781 -12.867188 1.34375 -13.484375 C 1.894531 -14.109375 2.722656 -14.421875 3.828125 -14.421875 C 4.929688 -14.421875 5.753906 -14.109375 6.296875 -13.484375 C 6.847656 -12.867188 7.125 -11.984375 7.125 -10.828125 L 7.125 -10.390625 L 5.015625 -10.390625 L 5.015625 -10.96875 C 5.015625 -11.488281 4.914062 -11.851562 4.71875 -12.0625 C 4.519531 -12.269531 4.242188 -12.375 3.890625 -12.375 C 3.535156 -12.375 3.257812 -12.269531 3.0625 -12.0625 C 2.863281 -11.851562 2.765625 -11.488281 2.765625 -10.96875 C 2.765625 -10.476562 2.875 -10.046875 3.09375 -9.671875 C 3.3125 -9.304688 3.582031 -8.957031 3.90625 -8.625 C 4.226562 -8.289062 4.578125 -7.957031 4.953125 -7.625 C 5.328125 -7.289062 5.675781 -6.925781 6 -6.53125 C 6.332031 -6.132812 6.601562 -5.6875 6.8125 -5.1875 C 7.03125 -4.6875 7.140625 -4.097656 7.140625 -3.421875 C 7.140625 -2.265625 6.859375 -1.378906 6.296875 -0.765625 C 5.734375 -0.148438 4.90625 0.15625 3.8125 0.15625 C 2.707031 0.15625 1.875 -0.148438 1.3125 -0.765625 C 0.75 -1.378906 0.46875 -2.265625 0.46875 -3.421875 L 0.46875 -4.296875 L 2.578125 -4.296875 L 2.578125 -3.28125 C 2.578125 -2.757812 2.679688 -2.394531 2.890625 -2.1875 C 3.109375 -1.988281 3.394531 -1.890625 3.75 -1.890625 C 4.101562 -1.890625 4.382812 -1.988281 4.59375 -2.1875 C 4.800781 -2.394531 4.90625 -2.757812 4.90625 -3.28125 C 4.90625 -3.769531 4.796875 -4.195312 4.578125 -4.5625 C 4.359375 -4.9375 4.085938 -5.289062 3.765625 -5.625 C 3.441406 -5.957031 3.09375 -6.289062 2.71875 -6.625 C 2.34375 -6.957031 1.992188 -7.320312 1.671875 -7.71875 C 1.347656 -8.113281 1.078125 -8.5625 0.859375 -9.0625 C 0.640625 -9.5625 0.53125 -10.148438 0.53125 -10.828125 Z M 0.53125 -10.828125 "/></g></g></g><g fill="#004aad" fill-opacity="1"><g transform="translate(288.476454, 107.925263)"><g><path d="M 3.046875 -8.25 L 6.125 -8.25 L 6.125 -6.203125 L 3.046875 -6.203125 L 3.046875 -2.03125 L 6.921875 -2.03125 L 6.921875 0 L 0.8125 0 L 0.8125 -14.25 L 6.921875 -14.25 L 6.921875 -12.21875 L 3.046875 -12.21875 Z M 6.25 -17.265625 L 4.171875 -15 L 2.671875 -15 L 4.046875 -17.265625 Z M 6.25 -17.265625 "/></g></g></g><g fill="#004aad" fill-opacity="1"><g transform="translate(296.254413, 107.925263)"><g/></g></g><g fill="#004aad" fill-opacity="1"><g transform="translate(299.695482, 107.925263)"><g><path d="M 2.875 -3.28125 C 2.875 -2.757812 2.976562 -2.394531 3.1875 -2.1875 C 3.394531 -1.976562 3.675781 -1.875 4.03125 -1.875 C 4.382812 -1.875 4.664062 -1.976562 4.875 -2.1875 C 5.082031 -2.394531 5.1875 -2.757812 5.1875 -3.28125 L 5.1875 -10.96875 C 5.1875 -11.488281 5.082031 -11.851562 4.875 -12.0625 C 4.664062 -12.269531 4.382812 -12.375 4.03125 -12.375 C 3.675781 -12.375 3.394531 -12.269531 3.1875 -12.0625 C 2.976562 -11.851562 2.875 -11.488281 2.875 -10.96875 Z M 0.625 -10.828125 C 0.625 -11.984375 0.914062 -12.867188 1.5 -13.484375 C 2.082031 -14.109375 2.925781 -14.421875 4.03125 -14.421875 C 5.132812 -14.421875 5.976562 -14.109375 6.5625 -13.484375 C 7.144531 -12.867188 7.4375 -11.984375 7.4375 -10.828125 L 7.4375 -3.421875 C 7.4375 -2.265625 7.144531 -1.378906 6.5625 -0.765625 C 5.976562 -0.148438 5.132812 0.15625 4.03125 0.15625 C 2.925781 0.15625 2.082031 -0.148438 1.5 -0.765625 C 0.914062 -1.378906 0.625 -2.265625 0.625 -3.421875 Z M 0.625 -10.828125 "/></g></g></g><g fill="#004aad" fill-opacity="1"><g transform="translate(308.043545, 107.925263)"><g><path d="M 3.046875 -7.921875 L 5.9375 -7.921875 L 5.9375 -5.890625 L 3.046875 -5.890625 L 3.046875 0 L 0.8125 0 L 0.8125 -14.25 L 6.734375 -14.25 L 6.734375 -12.21875 L 3.046875 -12.21875 Z M 3.046875 -7.921875 "/></g></g></g><g fill="#004aad" fill-opacity="1"><g transform="translate(315.33284, 107.925263)"><g><path d="M 3.046875 -7.921875 L 5.9375 -7.921875 L 5.9375 -5.890625 L 3.046875 -5.890625 L 3.046875 0 L 0.8125 0 L 0.8125 -14.25 L 6.734375 -14.25 L 6.734375 -12.21875 L 3.046875 -12.21875 Z M 3.046875 -7.921875 "/></g></g></g><g fill="#004aad" fill-opacity="1"><g transform="translate(322.622134, 107.925263)"><g><path d="M 0.8125 -14.25 L 3.046875 -14.25 L 3.046875 0 L 0.8125 0 Z M 0.8125 -14.25 "/></g></g></g><g fill="#004aad" fill-opacity="1"><g transform="translate(326.775837, 107.925263)"><g><path d="M 7.3125 -5.3125 L 7.3125 -3.421875 C 7.3125 -2.265625 7.03125 -1.378906 6.46875 -0.765625 C 5.90625 -0.148438 5.070312 0.15625 3.96875 0.15625 C 2.875 0.15625 2.039062 -0.148438 1.46875 -0.765625 C 0.90625 -1.378906 0.625 -2.265625 0.625 -3.421875 L 0.625 -10.828125 C 0.625 -11.984375 0.90625 -12.867188 1.46875 -13.484375 C 2.039062 -14.109375 2.875 -14.421875 3.96875 -14.421875 C 5.070312 -14.421875 5.90625 -14.109375 6.46875 -13.484375 C 7.03125 -12.867188 7.3125 -11.984375 7.3125 -10.828125 L 7.3125 -9.453125 L 5.1875 -9.453125 L 5.1875 -10.96875 C 5.1875 -11.488281 5.082031 -11.851562 4.875 -12.0625 C 4.664062 -12.269531 4.382812 -12.375 4.03125 -12.375 C 3.675781 -12.375 3.394531 -12.269531 3.1875 -12.0625 C 2.976562 -11.851562 2.875 -11.488281 2.875 -10.96875 L 2.875 -3.28125 C 2.875 -2.757812 2.976562 -2.394531 3.1875 -2.1875 C 3.394531 -1.988281 3.675781 -1.890625 4.03125 -1.890625 C 4.382812 -1.890625 4.664062 -1.988281 4.875 -2.1875 C 5.082031 -2.394531 5.1875 -2.757812 5.1875 -3.28125 L 5.1875 -5.3125 Z M 7.3125 -5.3125 "/></g></g></g><g fill="#004aad" fill-opacity="1"><g transform="translate(334.920293, 107.925263)"><g><path d="M 0.8125 -14.25 L 3.046875 -14.25 L 3.046875 0 L 0.8125 0 Z M 0.8125 -14.25 "/></g></g></g><g fill="#004aad" fill-opacity="1"><g transform="translate(339.073996, 107.925263)"><g><path d="M 3.046875 -8.25 L 6.125 -8.25 L 6.125 -6.203125 L 3.046875 -6.203125 L 3.046875 -2.03125 L 6.921875 -2.03125 L 6.921875 0 L 0.8125 0 L 0.8125 -14.25 L 6.921875 -14.25 L 6.921875 -12.21875 L 3.046875 -12.21875 Z M 3.046875 -8.25 "/></g></g></g><g fill="#004aad" fill-opacity="1"><g transform="translate(346.851955, 107.925263)"><g><path d="M 0.8125 -14.25 L 3.046875 -14.25 L 3.046875 -2.03125 L 6.734375 -2.03125 L 6.734375 0 L 0.8125 0 Z M 0.8125 -14.25 "/></g></g></g><g fill="#004aad" fill-opacity="1"><g transform="translate(354.039446, 107.925263)"><g/></g></g><g fill="#004aad" fill-opacity="1"><g transform="translate(357.480515, 107.925263)"><g><path d="M 0.8125 -14.25 L 4.359375 -14.25 C 5.484375 -14.25 6.320312 -13.945312 6.875 -13.34375 C 7.425781 -12.75 7.703125 -11.878906 7.703125 -10.734375 L 7.703125 -3.515625 C 7.703125 -2.367188 7.425781 -1.492188 6.875 -0.890625 C 6.320312 -0.296875 5.484375 0 4.359375 0 L 0.8125 0 Z M 3.046875 -12.21875 L 3.046875 -2.03125 L 4.3125 -2.03125 C 4.664062 -2.03125 4.941406 -2.128906 5.140625 -2.328125 C 5.347656 -2.535156 5.453125 -2.898438 5.453125 -3.421875 L 5.453125 -10.828125 C 5.453125 -11.347656 5.347656 -11.707031 5.140625 -11.90625 C 4.941406 -12.113281 4.664062 -12.21875 4.3125 -12.21875 Z M 3.046875 -12.21875 "/></g></g></g><g fill="#004aad" fill-opacity="1"><g transform="translate(366.07291, 107.925263)"><g><path d="M 3.046875 -8.25 L 6.125 -8.25 L 6.125 -6.203125 L 3.046875 -6.203125 L 3.046875 -2.03125 L 6.921875 -2.03125 L 6.921875 0 L 0.8125 0 L 0.8125 -14.25 L 6.921875 -14.25 L 6.921875 -12.21875 L 3.046875 -12.21875 Z M 3.046875 -8.25 "/></g></g></g><g fill="#004aad" fill-opacity="1"><g transform="translate(373.850857, 107.925263)"><g/></g></g><g fill="#004aad" fill-opacity="1"><g transform="translate(377.291927, 107.925263)"><g><path d="M 0.15625 -14.25 L 7.078125 -14.25 L 7.078125 -12.21875 L 4.75 -12.21875 L 4.75 0 L 2.5 0 L 2.5 -12.21875 L 0.15625 -12.21875 Z M 0.15625 -14.25 "/></g></g></g><g fill="#004aad" fill-opacity="1"><g transform="translate(384.825542, 107.925263)"><g><path d="M 3.046875 -8.25 L 6.125 -8.25 L 6.125 -6.203125 L 3.046875 -6.203125 L 3.046875 -2.03125 L 6.921875 -2.03125 L 6.921875 0 L 0.8125 0 L 0.8125 -14.25 L 6.921875 -14.25 L 6.921875 -12.21875 L 3.046875 -12.21875 Z M 6.25 -17.265625 L 4.171875 -15 L 2.671875 -15 L 4.046875 -17.265625 Z M 6.25 -17.265625 "/></g></g></g><g fill="#004aad" fill-opacity="1"><g transform="translate(392.603489, 107.925263)"><g><path d="M 0.8125 -14.25 L 3.046875 -14.25 L 3.046875 -2.03125 L 6.734375 -2.03125 L 6.734375 0 L 0.8125 0 Z M 0.8125 -14.25 "/></g></g></g><g fill="#004aad" fill-opacity="1"><g transform="translate(399.790969, 107.925263)"><g><path d="M 3.046875 -8.25 L 6.125 -8.25 L 6.125 -6.203125 L 3.046875 -6.203125 L 3.046875 -2.03125 L 6.921875 -2.03125 L 6.921875 0 L 0.8125 0 L 0.8125 -14.25 L 6.921875 -14.25 L 6.921875 -12.21875 L 3.046875 -12.21875 Z M 6.25 -17.265625 L 4.171875 -15 L 2.671875 -15 L 4.046875 -17.265625 Z M 6.25 -17.265625 "/></g></g></g><g fill="#004aad" fill-opacity="1"><g transform="translate(407.568916, 107.925263)"><g><path d="M 7.3125 -5.3125 L 7.3125 -3.421875 C 7.3125 -2.265625 7.03125 -1.378906 6.46875 -0.765625 C 5.90625 -0.148438 5.070312 0.15625 3.96875 0.15625 C 2.875 0.15625 2.039062 -0.148438 1.46875 -0.765625 C 0.90625 -1.378906 0.625 -2.265625 0.625 -3.421875 L 0.625 -10.828125 C 0.625 -11.984375 0.90625 -12.867188 1.46875 -13.484375 C 2.039062 -14.109375 2.875 -14.421875 3.96875 -14.421875 C 5.070312 -14.421875 5.90625 -14.109375 6.46875 -13.484375 C 7.03125 -12.867188 7.3125 -11.984375 7.3125 -10.828125 L 7.3125 -9.453125 L 5.1875 -9.453125 L 5.1875 -10.96875 C 5.1875 -11.488281 5.082031 -11.851562 4.875 -12.0625 C 4.664062 -12.269531 4.382812 -12.375 4.03125 -12.375 C 3.675781 -12.375 3.394531 -12.269531 3.1875 -12.0625 C 2.976562 -11.851562 2.875 -11.488281 2.875 -10.96875 L 2.875 -3.28125 C 2.875 -2.757812 2.976562 -2.394531 3.1875 -2.1875 C 3.394531 -1.988281 3.675781 -1.890625 4.03125 -1.890625 C 4.382812 -1.890625 4.664062 -1.988281 4.875 -2.1875 C 5.082031 -2.394531 5.1875 -2.757812 5.1875 -3.28125 L 5.1875 -5.3125 Z M 7.3125 -5.3125 "/></g></g></g><g fill="#004aad" fill-opacity="1"><g transform="translate(415.713373, 107.925263)"><g><path d="M 3.046875 0 L 0.8125 0 L 0.8125 -14.25 L 3.046875 -14.25 L 3.046875 -8.140625 L 5.59375 -8.140625 L 5.59375 -14.25 L 7.875 -14.25 L 7.875 0 L 5.59375 0 L 5.59375 -6.109375 L 3.046875 -6.109375 Z M 3.046875 0 "/></g></g></g><g fill="#004aad" fill-opacity="1"><g transform="translate(424.692629, 107.925263)"><g><path d="M 8.0625 0 L 5.796875 0 L 5.421875 -2.578125 L 2.671875 -2.578125 L 2.28125 0 L 0.21875 0 L 2.5 -14.25 L 5.78125 -14.25 Z M 2.953125 -4.515625 L 5.109375 -4.515625 L 4.03125 -11.734375 Z M 2.953125 -4.515625 "/></g></g></g><g fill="#004aad" fill-opacity="1"><g transform="translate(433.264649, 107.925263)"><g><path d="M 5.5 0 C 5.46875 -0.09375 5.4375 -0.179688 5.40625 -0.265625 C 5.382812 -0.347656 5.363281 -0.445312 5.34375 -0.5625 C 5.320312 -0.6875 5.304688 -0.84375 5.296875 -1.03125 C 5.296875 -1.226562 5.296875 -1.46875 5.296875 -1.75 L 5.296875 -3.984375 C 5.296875 -4.648438 5.175781 -5.117188 4.9375 -5.390625 C 4.707031 -5.660156 4.335938 -5.796875 3.828125 -5.796875 L 3.046875 -5.796875 L 3.046875 0 L 0.8125 0 L 0.8125 -14.25 L 4.1875 -14.25 C 5.351562 -14.25 6.195312 -13.976562 6.71875 -13.4375 C 7.25 -12.894531 7.515625 -12.070312 7.515625 -10.96875 L 7.515625 -9.859375 C 7.515625 -8.390625 7.023438 -7.425781 6.046875 -6.96875 C 6.617188 -6.726562 7.007812 -6.347656 7.21875 -5.828125 C 7.425781 -5.304688 7.53125 -4.671875 7.53125 -3.921875 L 7.53125 -1.734375 C 7.53125 -1.378906 7.539062 -1.066406 7.5625 -0.796875 C 7.59375 -0.535156 7.664062 -0.269531 7.78125 0 Z M 3.046875 -12.21875 L 3.046875 -7.84375 L 3.921875 -7.84375 C 4.347656 -7.84375 4.675781 -7.945312 4.90625 -8.15625 C 5.144531 -8.375 5.265625 -8.769531 5.265625 -9.34375 L 5.265625 -10.75 C 5.265625 -11.257812 5.171875 -11.628906 4.984375 -11.859375 C 4.804688 -12.097656 4.523438 -12.21875 4.140625 -12.21875 Z M 3.046875 -12.21875 "/></g></g></g><g fill="#004aad" fill-opacity="1"><g transform="translate(441.734867, 107.925263)"><g><path d="M 4.171875 -7.9375 L 7.3125 -7.9375 L 7.3125 -3.421875 C 7.3125 -2.265625 7.03125 -1.378906 6.46875 -0.765625 C 5.90625 -0.148438 5.070312 0.15625 3.96875 0.15625 C 2.875 0.15625 2.039062 -0.148438 1.46875 -0.765625 C 0.90625 -1.378906 0.625 -2.265625 0.625 -3.421875 L 0.625 -10.828125 C 0.625 -11.984375 0.90625 -12.867188 1.46875 -13.484375 C 2.039062 -14.109375 2.875 -14.421875 3.96875 -14.421875 C 5.070312 -14.421875 5.90625 -14.109375 6.46875 -13.484375 C 7.03125 -12.867188 7.3125 -11.984375 7.3125 -10.828125 L 7.3125 -9.453125 L 5.1875 -9.453125 L 5.1875 -10.96875 C 5.1875 -11.488281 5.082031 -11.851562 4.875 -12.0625 C 4.664062 -12.269531 4.382812 -12.375 4.03125 -12.375 C 3.675781 -12.375 3.394531 -12.269531 3.1875 -12.0625 C 2.976562 -11.851562 2.875 -11.488281 2.875 -10.96875 L 2.875 -3.28125 C 2.875 -2.757812 2.976562 -2.394531 3.1875 -2.1875 C 3.394531 -1.988281 3.675781 -1.890625 4.03125 -1.890625 C 4.382812 -1.890625 4.664062 -1.988281 4.875 -2.1875 C 5.082031 -2.394531 5.1875 -2.757812 5.1875 -3.28125 L 5.1875 -5.90625 L 4.171875 -5.90625 Z M 4.171875 -7.9375 "/></g></g></g><g fill="#004aad" fill-opacity="1"><g transform="translate(449.960753, 107.925263)"><g><path d="M 3.046875 -8.25 L 6.125 -8.25 L 6.125 -6.203125 L 3.046875 -6.203125 L 3.046875 -2.03125 L 6.921875 -2.03125 L 6.921875 0 L 0.8125 0 L 0.8125 -14.25 L 6.921875 -14.25 L 6.921875 -12.21875 L 3.046875 -12.21875 Z M 3.046875 -8.25 "/></g></g></g><g fill="#004aad" fill-opacity="1"><g transform="translate(457.7387, 107.925263)"><g><path d="M 5.5625 -4.140625 L 7.078125 -14.25 L 10.203125 -14.25 L 10.203125 0 L 8.078125 0 L 8.078125 -10.21875 L 6.53125 0 L 4.421875 0 L 2.75 -10.078125 L 2.75 0 L 0.796875 0 L 0.796875 -14.25 L 3.90625 -14.25 Z M 5.5625 -4.140625 "/></g></g></g><g fill="#004aad" fill-opacity="1"><g transform="translate(469.039099, 107.925263)"><g><path d="M 3.046875 -8.25 L 6.125 -8.25 L 6.125 -6.203125 L 3.046875 -6.203125 L 3.046875 -2.03125 L 6.921875 -2.03125 L 6.921875 0 L 0.8125 0 L 0.8125 -14.25 L 6.921875 -14.25 L 6.921875 -12.21875 L 3.046875 -12.21875 Z M 3.046875 -8.25 "/></g></g></g><g fill="#004aad" fill-opacity="1"><g transform="translate(476.817046, 107.925263)"><g><path d="M 2.8125 -10.328125 L 2.8125 0 L 0.796875 0 L 0.796875 -14.25 L 3.609375 -14.25 L 5.90625 -5.71875 L 5.90625 -14.25 L 7.90625 -14.25 L 7.90625 0 L 5.59375 0 Z M 2.8125 -10.328125 "/></g></g></g><g fill="#004aad" fill-opacity="1"><g transform="translate(485.796303, 107.925263)"><g><path d="M 0.15625 -14.25 L 7.078125 -14.25 L 7.078125 -12.21875 L 4.75 -12.21875 L 4.75 0 L 2.5 0 L 2.5 -12.21875 L 0.15625 -12.21875 Z M 0.15625 -14.25 "/></g></g></g><g fill="#004aad" fill-opacity="1"><g transform="translate(493.329918, 107.925263)"><g/></g></g><g fill="#004aad" fill-opacity="1"><g transform="translate(496.770987, 107.925263)"><g><path d="M 0.8125 -14.25 L 4.359375 -14.25 C 5.484375 -14.25 6.320312 -13.945312 6.875 -13.34375 C 7.425781 -12.75 7.703125 -11.878906 7.703125 -10.734375 L 7.703125 -3.515625 C 7.703125 -2.367188 7.425781 -1.492188 6.875 -0.890625 C 6.320312 -0.296875 5.484375 0 4.359375 0 L 0.8125 0 Z M 3.046875 -12.21875 L 3.046875 -2.03125 L 4.3125 -2.03125 C 4.664062 -2.03125 4.941406 -2.128906 5.140625 -2.328125 C 5.347656 -2.535156 5.453125 -2.898438 5.453125 -3.421875 L 5.453125 -10.828125 C 5.453125 -11.347656 5.347656 -11.707031 5.140625 -11.90625 C 4.941406 -12.113281 4.664062 -12.21875 4.3125 -12.21875 Z M 3.046875 -12.21875 "/></g></g></g><g fill="#004aad" fill-opacity="1"><g transform="translate(505.363382, 107.925263)"><g><path d="M 3.046875 -8.25 L 6.125 -8.25 L 6.125 -6.203125 L 3.046875 -6.203125 L 3.046875 -2.03125 L 6.921875 -2.03125 L 6.921875 0 L 0.8125 0 L 0.8125 -14.25 L 6.921875 -14.25 L 6.921875 -12.21875 L 3.046875 -12.21875 Z M 3.046875 -8.25 "/></g></g></g><g fill="#004aad" fill-opacity="1"><g transform="translate(513.141329, 107.925263)"><g/></g></g><g fill="#004aad" fill-opacity="1"><g transform="translate(516.582399, 107.925263)"><g><path d="M 7.3125 -5.3125 L 7.3125 -3.421875 C 7.3125 -2.265625 7.03125 -1.378906 6.46875 -0.765625 C 5.90625 -0.148438 5.070312 0.15625 3.96875 0.15625 C 2.875 0.15625 2.039062 -0.148438 1.46875 -0.765625 C 0.90625 -1.378906 0.625 -2.265625 0.625 -3.421875 L 0.625 -10.828125 C 0.625 -11.984375 0.90625 -12.867188 1.46875 -13.484375 C 2.039062 -14.109375 2.875 -14.421875 3.96875 -14.421875 C 5.070312 -14.421875 5.90625 -14.109375 6.46875 -13.484375 C 7.03125 -12.867188 7.3125 -11.984375 7.3125 -10.828125 L 7.3125 -9.453125 L 5.1875 -9.453125 L 5.1875 -10.96875 C 5.1875 -11.488281 5.082031 -11.851562 4.875 -12.0625 C 4.664062 -12.269531 4.382812 -12.375 4.03125 -12.375 C 3.675781 -12.375 3.394531 -12.269531 3.1875 -12.0625 C 2.976562 -11.851562 2.875 -11.488281 2.875 -10.96875 L 2.875 -3.28125 C 2.875 -2.757812 2.976562 -2.394531 3.1875 -2.1875 C 3.394531 -1.988281 3.675781 -1.890625 4.03125 -1.890625 C 4.382812 -1.890625 4.664062 -1.988281 4.875 -2.1875 C 5.082031 -2.394531 5.1875 -2.757812 5.1875 -3.28125 L 5.1875 -5.3125 Z M 7.3125 -5.3125 "/></g></g></g><g fill="#004aad" fill-opacity="1"><g transform="translate(524.726855, 107.925263)"><g><path d="M 3.046875 -8.25 L 6.125 -8.25 L 6.125 -6.203125 L 3.046875 -6.203125 L 3.046875 -2.03125 L 6.921875 -2.03125 L 6.921875 0 L 0.8125 0 L 0.8125 -14.25 L 6.921875 -14.25 L 6.921875 -12.21875 L 3.046875 -12.21875 Z M 3.046875 -8.25 "/></g></g></g><g fill="#004aad" fill-opacity="1"><g transform="translate(532.504803, 107.925263)"><g><path d="M 5.5 0 C 5.46875 -0.09375 5.4375 -0.179688 5.40625 -0.265625 C 5.382812 -0.347656 5.363281 -0.445312 5.34375 -0.5625 C 5.320312 -0.6875 5.304688 -0.84375 5.296875 -1.03125 C 5.296875 -1.226562 5.296875 -1.46875 5.296875 -1.75 L 5.296875 -3.984375 C 5.296875 -4.648438 5.175781 -5.117188 4.9375 -5.390625 C 4.707031 -5.660156 4.335938 -5.796875 3.828125 -5.796875 L 3.046875 -5.796875 L 3.046875 0 L 0.8125 0 L 0.8125 -14.25 L 4.1875 -14.25 C 5.351562 -14.25 6.195312 -13.976562 6.71875 -13.4375 C 7.25 -12.894531 7.515625 -12.070312 7.515625 -10.96875 L 7.515625 -9.859375 C 7.515625 -8.390625 7.023438 -7.425781 6.046875 -6.96875 C 6.617188 -6.726562 7.007812 -6.347656 7.21875 -5.828125 C 7.425781 -5.304688 7.53125 -4.671875 7.53125 -3.921875 L 7.53125 -1.734375 C 7.53125 -1.378906 7.539062 -1.066406 7.5625 -0.796875 C 7.59375 -0.535156 7.664062 -0.269531 7.78125 0 Z M 3.046875 -12.21875 L 3.046875 -7.84375 L 3.921875 -7.84375 C 4.347656 -7.84375 4.675781 -7.945312 4.90625 -8.15625 C 5.144531 -8.375 5.265625 -8.769531 5.265625 -9.34375 L 5.265625 -10.75 C 5.265625 -11.257812 5.171875 -11.628906 4.984375 -11.859375 C 4.804688 -12.097656 4.523438 -12.21875 4.140625 -12.21875 Z M 3.046875 -12.21875 "/></g></g></g><g fill="#004aad" fill-opacity="1"><g transform="translate(540.97502, 107.925263)"><g><path d="M 0.15625 -14.25 L 7.078125 -14.25 L 7.078125 -12.21875 L 4.75 -12.21875 L 4.75 0 L 2.5 0 L 2.5 -12.21875 L 0.15625 -12.21875 Z M 0.15625 -14.25 "/></g></g></g><g fill="#004aad" fill-opacity="1"><g transform="translate(548.508635, 107.925263)"><g><path d="M 0.8125 -14.25 L 3.046875 -14.25 L 3.046875 0 L 0.8125 0 Z M 0.8125 -14.25 "/></g></g></g><g fill="#004aad" fill-opacity="1"><g transform="translate(552.662327, 107.925263)"><g><path d="M 3.046875 -7.921875 L 5.9375 -7.921875 L 5.9375 -5.890625 L 3.046875 -5.890625 L 3.046875 0 L 0.8125 0 L 0.8125 -14.25 L 6.734375 -14.25 L 6.734375 -12.21875 L 3.046875 -12.21875 Z M 3.046875 -7.921875 "/></g></g></g><g fill="#004aad" fill-opacity="1"><g transform="translate(559.951609, 107.925263)"><g><path d="M 0.8125 -14.25 L 3.046875 -14.25 L 3.046875 0 L 0.8125 0 Z M 0.8125 -14.25 "/></g></g></g><g fill="#004aad" fill-opacity="1"><g transform="translate(564.105324, 107.925263)"><g><path d="M 7.3125 -5.3125 L 7.3125 -3.421875 C 7.3125 -2.265625 7.03125 -1.378906 6.46875 -0.765625 C 5.90625 -0.148438 5.070312 0.15625 3.96875 0.15625 C 2.875 0.15625 2.039062 -0.148438 1.46875 -0.765625 C 0.90625 -1.378906 0.625 -2.265625 0.625 -3.421875 L 0.625 -10.828125 C 0.625 -11.984375 0.90625 -12.867188 1.46875 -13.484375 C 2.039062 -14.109375 2.875 -14.421875 3.96875 -14.421875 C 5.070312 -14.421875 5.90625 -14.109375 6.46875 -13.484375 C 7.03125 -12.867188 7.3125 -11.984375 7.3125 -10.828125 L 7.3125 -9.453125 L 5.1875 -9.453125 L 5.1875 -10.96875 C 5.1875 -11.488281 5.082031 -11.851562 4.875 -12.0625 C 4.664062 -12.269531 4.382812 -12.375 4.03125 -12.375 C 3.675781 -12.375 3.394531 -12.269531 3.1875 -12.0625 C 2.976562 -11.851562 2.875 -11.488281 2.875 -10.96875 L 2.875 -3.28125 C 2.875 -2.757812 2.976562 -2.394531 3.1875 -2.1875 C 3.394531 -1.988281 3.675781 -1.890625 4.03125 -1.890625 C 4.382812 -1.890625 4.664062 -1.988281 4.875 -2.1875 C 5.082031 -2.394531 5.1875 -2.757812 5.1875 -3.28125 L 5.1875 -5.3125 Z M 7.3125 -5.3125 "/></g></g></g><g fill="#004aad" fill-opacity="1"><g transform="translate(572.249757, 107.925263)"><g><path d="M 8.0625 0 L 5.796875 0 L 5.421875 -2.578125 L 2.671875 -2.578125 L 2.28125 0 L 0.21875 0 L 2.5 -14.25 L 5.78125 -14.25 Z M 2.953125 -4.515625 L 5.109375 -4.515625 L 4.03125 -11.734375 Z M 2.953125 -4.515625 "/></g></g></g><g fill="#004aad" fill-opacity="1"><g transform="translate(580.821801, 107.925263)"><g><path d="M 0.15625 -14.25 L 7.078125 -14.25 L 7.078125 -12.21875 L 4.75 -12.21875 L 4.75 0 L 2.5 0 L 2.5 -12.21875 L 0.15625 -12.21875 Z M 0.15625 -14.25 "/></g></g></g><g fill="#004aad" fill-opacity="1"><g transform="translate(588.355416, 107.925263)"><g/></g></g><g fill="#004aad" fill-opacity="1"><g transform="translate(591.796463, 107.925263)"><g><path d="M 0.8125 -14.25 L 4.359375 -14.25 C 5.484375 -14.25 6.320312 -13.945312 6.875 -13.34375 C 7.425781 -12.75 7.703125 -11.878906 7.703125 -10.734375 L 7.703125 -3.515625 C 7.703125 -2.367188 7.425781 -1.492188 6.875 -0.890625 C 6.320312 -0.296875 5.484375 0 4.359375 0 L 0.8125 0 Z M 3.046875 -12.21875 L 3.046875 -2.03125 L 4.3125 -2.03125 C 4.664062 -2.03125 4.941406 -2.128906 5.140625 -2.328125 C 5.347656 -2.535156 5.453125 -2.898438 5.453125 -3.421875 L 5.453125 -10.828125 C 5.453125 -11.347656 5.347656 -11.707031 5.140625 -11.90625 C 4.941406 -12.113281 4.664062 -12.21875 4.3125 -12.21875 Z M 3.046875 -12.21875 "/></g></g></g><g fill="#004aad" fill-opacity="1"><g transform="translate(600.388858, 107.925263)"><g><path d="M 3.046875 -8.25 L 6.125 -8.25 L 6.125 -6.203125 L 3.046875 -6.203125 L 3.046875 -2.03125 L 6.921875 -2.03125 L 6.921875 0 L 0.8125 0 L 0.8125 -14.25 L 6.921875 -14.25 L 6.921875 -12.21875 L 3.046875 -12.21875 Z M 3.046875 -8.25 "/></g></g></g><g fill="#004aad" fill-opacity="1"><g transform="translate(608.166828, 107.925263)"><g/></g></g><g fill="#004aad" fill-opacity="1"><g transform="translate(611.607874, 107.925263)"><g><path d="M 0.8125 -14.25 L 4.359375 -14.25 C 5.484375 -14.25 6.320312 -13.945312 6.875 -13.34375 C 7.425781 -12.75 7.703125 -11.878906 7.703125 -10.734375 L 7.703125 -3.515625 C 7.703125 -2.367188 7.425781 -1.492188 6.875 -0.890625 C 6.320312 -0.296875 5.484375 0 4.359375 0 L 0.8125 0 Z M 3.046875 -12.21875 L 3.046875 -2.03125 L 4.3125 -2.03125 C 4.664062 -2.03125 4.941406 -2.128906 5.140625 -2.328125 C 5.347656 -2.535156 5.453125 -2.898438 5.453125 -3.421875 L 5.453125 -10.828125 C 5.453125 -11.347656 5.347656 -11.707031 5.140625 -11.90625 C 4.941406 -12.113281 4.664062 -12.21875 4.3125 -12.21875 Z M 3.046875 -12.21875 "/></g></g></g><g fill="#004aad" fill-opacity="1"><g transform="translate(620.200269, 107.925263)"><g><path d="M 0.8125 -14.25 L 3.046875 -14.25 L 3.046875 0 L 0.8125 0 Z M 0.8125 -14.25 "/></g></g></g><g fill="#004aad" fill-opacity="1"><g transform="translate(624.353984, 107.925263)"><g><path d="M 8.0625 0 L 5.796875 0 L 5.421875 -2.578125 L 2.671875 -2.578125 L 2.28125 0 L 0.21875 0 L 2.5 -14.25 L 5.78125 -14.25 Z M 2.953125 -4.515625 L 5.109375 -4.515625 L 4.03125 -11.734375 Z M 2.953125 -4.515625 "/></g></g></g><g fill="#004aad" fill-opacity="1"><g transform="translate(632.926027, 107.925263)"><g><path d="M 4.171875 -7.9375 L 7.3125 -7.9375 L 7.3125 -3.421875 C 7.3125 -2.265625 7.03125 -1.378906 6.46875 -0.765625 C 5.90625 -0.148438 5.070312 0.15625 3.96875 0.15625 C 2.875 0.15625 2.039062 -0.148438 1.46875 -0.765625 C 0.90625 -1.378906 0.625 -2.265625 0.625 -3.421875 L 0.625 -10.828125 C 0.625 -11.984375 0.90625 -12.867188 1.46875 -13.484375 C 2.039062 -14.109375 2.875 -14.421875 3.96875 -14.421875 C 5.070312 -14.421875 5.90625 -14.109375 6.46875 -13.484375 C 7.03125 -12.867188 7.3125 -11.984375 7.3125 -10.828125 L 7.3125 -9.453125 L 5.1875 -9.453125 L 5.1875 -10.96875 C 5.1875 -11.488281 5.082031 -11.851562 4.875 -12.0625 C 4.664062 -12.269531 4.382812 -12.375 4.03125 -12.375 C 3.675781 -12.375 3.394531 -12.269531 3.1875 -12.0625 C 2.976562 -11.851562 2.875 -11.488281 2.875 -10.96875 L 2.875 -3.28125 C 2.875 -2.757812 2.976562 -2.394531 3.1875 -2.1875 C 3.394531 -1.988281 3.675781 -1.890625 4.03125 -1.890625 C 4.382812 -1.890625 4.664062 -1.988281 4.875 -2.1875 C 5.082031 -2.394531 5.1875 -2.757812 5.1875 -3.28125 L 5.1875 -5.90625 L 4.171875 -5.90625 Z M 4.171875 -7.9375 "/></g></g></g><g fill="#004aad" fill-opacity="1"><g transform="translate(641.151913, 107.925263)"><g><path d="M 2.8125 -10.328125 L 2.8125 0 L 0.796875 0 L 0.796875 -14.25 L 3.609375 -14.25 L 5.90625 -5.71875 L 5.90625 -14.25 L 7.90625 -14.25 L 7.90625 0 L 5.59375 0 Z M 2.8125 -10.328125 "/></g></g></g><g fill="#004aad" fill-opacity="1"><g transform="translate(650.131169, 107.925263)"><g><path d="M 2.875 -3.28125 C 2.875 -2.757812 2.976562 -2.394531 3.1875 -2.1875 C 3.394531 -1.976562 3.675781 -1.875 4.03125 -1.875 C 4.382812 -1.875 4.664062 -1.976562 4.875 -2.1875 C 5.082031 -2.394531 5.1875 -2.757812 5.1875 -3.28125 L 5.1875 -10.96875 C 5.1875 -11.488281 5.082031 -11.851562 4.875 -12.0625 C 4.664062 -12.269531 4.382812 -12.375 4.03125 -12.375 C 3.675781 -12.375 3.394531 -12.269531 3.1875 -12.0625 C 2.976562 -11.851562 2.875 -11.488281 2.875 -10.96875 Z M 0.625 -10.828125 C 0.625 -11.984375 0.914062 -12.867188 1.5 -13.484375 C 2.082031 -14.109375 2.925781 -14.421875 4.03125 -14.421875 C 5.132812 -14.421875 5.976562 -14.109375 6.5625 -13.484375 C 7.144531 -12.867188 7.4375 -11.984375 7.4375 -10.828125 L 7.4375 -3.421875 C 7.4375 -2.265625 7.144531 -1.378906 6.5625 -0.765625 C 5.976562 -0.148438 5.132812 0.15625 4.03125 0.15625 C 2.925781 0.15625 2.082031 -0.148438 1.5 -0.765625 C 0.914062 -1.378906 0.625 -2.265625 0.625 -3.421875 Z M 0.625 -10.828125 "/></g></g></g><g fill="#004aad" fill-opacity="1"><g transform="translate(658.479209, 107.925263)"><g><path d="M 0.53125 -10.828125 C 0.53125 -11.984375 0.800781 -12.867188 1.34375 -13.484375 C 1.894531 -14.109375 2.722656 -14.421875 3.828125 -14.421875 C 4.929688 -14.421875 5.753906 -14.109375 6.296875 -13.484375 C 6.847656 -12.867188 7.125 -11.984375 7.125 -10.828125 L 7.125 -10.390625 L 5.015625 -10.390625 L 5.015625 -10.96875 C 5.015625 -11.488281 4.914062 -11.851562 4.71875 -12.0625 C 4.519531 -12.269531 4.242188 -12.375 3.890625 -12.375 C 3.535156 -12.375 3.257812 -12.269531 3.0625 -12.0625 C 2.863281 -11.851562 2.765625 -11.488281 2.765625 -10.96875 C 2.765625 -10.476562 2.875 -10.046875 3.09375 -9.671875 C 3.3125 -9.304688 3.582031 -8.957031 3.90625 -8.625 C 4.226562 -8.289062 4.578125 -7.957031 4.953125 -7.625 C 5.328125 -7.289062 5.675781 -6.925781 6 -6.53125 C 6.332031 -6.132812 6.601562 -5.6875 6.8125 -5.1875 C 7.03125 -4.6875 7.140625 -4.097656 7.140625 -3.421875 C 7.140625 -2.265625 6.859375 -1.378906 6.296875 -0.765625 C 5.734375 -0.148438 4.90625 0.15625 3.8125 0.15625 C 2.707031 0.15625 1.875 -0.148438 1.3125 -0.765625 C 0.75 -1.378906 0.46875 -2.265625 0.46875 -3.421875 L 0.46875 -4.296875 L 2.578125 -4.296875 L 2.578125 -3.28125 C 2.578125 -2.757812 2.679688 -2.394531 2.890625 -2.1875 C 3.109375 -1.988281 3.394531 -1.890625 3.75 -1.890625 C 4.101562 -1.890625 4.382812 -1.988281 4.59375 -2.1875 C 4.800781 -2.394531 4.90625 -2.757812 4.90625 -3.28125 C 4.90625 -3.769531 4.796875 -4.195312 4.578125 -4.5625 C 4.359375 -4.9375 4.085938 -5.289062 3.765625 -5.625 C 3.441406 -5.957031 3.09375 -6.289062 2.71875 -6.625 C 2.34375 -6.957031 1.992188 -7.320312 1.671875 -7.71875 C 1.347656 -8.113281 1.078125 -8.5625 0.859375 -9.0625 C 0.640625 -9.5625 0.53125 -10.148438 0.53125 -10.828125 Z M 0.53125 -10.828125 "/></g></g></g><g fill="#004aad" fill-opacity="1"><g transform="translate(666.379333, 107.925263)"><g><path d="M 0.15625 -14.25 L 7.078125 -14.25 L 7.078125 -12.21875 L 4.75 -12.21875 L 4.75 0 L 2.5 0 L 2.5 -12.21875 L 0.15625 -12.21875 Z M 0.15625 -14.25 "/></g></g></g><g fill="#004aad" fill-opacity="1"><g transform="translate(673.912948, 107.925263)"><g><path d="M 0.8125 -14.25 L 3.046875 -14.25 L 3.046875 0 L 0.8125 0 Z M 0.8125 -14.25 "/></g></g></g><g fill="#004aad" fill-opacity="1"><g transform="translate(678.066663, 107.925263)"><g><path d="M 0.625 -10.828125 C 0.625 -11.984375 0.914062 -12.867188 1.5 -13.484375 C 2.082031 -14.109375 2.925781 -14.421875 4.03125 -14.421875 C 5.132812 -14.421875 5.976562 -14.109375 6.5625 -13.484375 C 7.144531 -12.867188 7.4375 -11.984375 7.4375 -10.828125 L 7.4375 -3.421875 C 7.4375 -2.617188 7.289062 -1.953125 7 -1.421875 C 7.050781 -1.285156 7.117188 -1.203125 7.203125 -1.171875 C 7.296875 -1.140625 7.441406 -1.125 7.640625 -1.125 L 7.84375 -1.125 L 7.84375 0.875 L 7.53125 0.875 C 7.03125 0.875 6.617188 0.785156 6.296875 0.609375 C 5.984375 0.441406 5.75 0.203125 5.59375 -0.109375 C 5.363281 -0.0234375 5.117188 0.0351562 4.859375 0.078125 C 4.609375 0.128906 4.332031 0.15625 4.03125 0.15625 C 2.925781 0.15625 2.082031 -0.148438 1.5 -0.765625 C 0.914062 -1.378906 0.625 -2.265625 0.625 -3.421875 Z M 2.875 -3.28125 C 2.875 -2.757812 2.976562 -2.394531 3.1875 -2.1875 C 3.394531 -1.976562 3.675781 -1.875 4.03125 -1.875 C 4.382812 -1.875 4.664062 -1.976562 4.875 -2.1875 C 5.082031 -2.394531 5.1875 -2.757812 5.1875 -3.28125 L 5.1875 -10.96875 C 5.1875 -11.488281 5.082031 -11.851562 4.875 -12.0625 C 4.664062 -12.269531 4.382812 -12.375 4.03125 -12.375 C 3.675781 -12.375 3.394531 -12.269531 3.1875 -12.0625 C 2.976562 -11.851562 2.875 -11.488281 2.875 -10.96875 Z M 2.875 -3.28125 "/></g></g></g><g fill="#004aad" fill-opacity="1"><g transform="translate(686.414703, 107.925263)"><g><path d="M 2.953125 -14.25 L 2.953125 -3.25 C 2.953125 -2.738281 3.054688 -2.378906 3.265625 -2.171875 C 3.472656 -1.972656 3.753906 -1.875 4.109375 -1.875 C 4.460938 -1.875 4.742188 -1.972656 4.953125 -2.171875 C 5.160156 -2.378906 5.265625 -2.738281 5.265625 -3.25 L 5.265625 -14.25 L 7.390625 -14.25 L 7.390625 -3.40625 C 7.390625 -2.25 7.109375 -1.359375 6.546875 -0.734375 C 5.984375 -0.117188 5.148438 0.1875 4.046875 0.1875 C 2.953125 0.1875 2.125 -0.117188 1.5625 -0.734375 C 1 -1.359375 0.71875 -2.25 0.71875 -3.40625 L 0.71875 -14.25 Z M 2.953125 -14.25 "/></g></g></g><g fill="#004aad" fill-opacity="1"><g transform="translate(694.803492, 107.925263)"><g><path d="M 3.046875 -8.25 L 6.125 -8.25 L 6.125 -6.203125 L 3.046875 -6.203125 L 3.046875 -2.03125 L 6.921875 -2.03125 L 6.921875 0 L 0.8125 0 L 0.8125 -14.25 L 6.921875 -14.25 L 6.921875 -12.21875 L 3.046875 -12.21875 Z M 3.046875 -8.25 "/></g></g></g><g fill="#004aad" fill-opacity="1"><g transform="translate(702.570696, 107.925263)"><g/></g></g></svg>